<svg width="19" height="20" viewBox="0 0 19 20" fill="none" xmlns="http://www.w3.org/2000/svg">
<path d="M16.3247 7.4675C16.3247 7.4675 15.7817 14.2025 15.4667 17.0395C15.3167 18.3945 14.4797 19.1885 13.1087 19.2135C10.4997 19.2605 7.8877 19.2635 5.2797 19.2085C3.9607 19.1815 3.1377 18.3775 2.9907 17.0465C2.6737 14.1845 2.1337 7.4675 2.1337 7.4675M17.708 4.239H0.75M14.4404 4.239C13.6554 4.239 12.9794 3.684 12.8254 2.915L12.5824 1.699C12.4324 1.138 11.9244 0.75 11.3454 0.75H7.1124C6.5334 0.75 6.0254 1.138 5.8754 1.699L5.6324 2.915C5.4784 3.684 4.8024 4.239 4.0174 4.239" stroke="#C92A2A" stroke-width="1.5" stroke-linecap="round" stroke-linejoin="round"/>
</svg>
